<mxfile host="app.diagrams.net" agent="Mozilla/5.0 (X11; Linux x86_64) AppleWebKit/537.36 (KHTML, like Gecko) Chrome/131.0.0.0 Safari/537.36" version="26.0.3">
  <diagram id="oqSar6cTFpMgUZWYV7A9" name="Page-1">
    <mxGraphModel dx="2607" dy="1342" grid="1" gridSize="10" guides="1" tooltips="1" connect="1" arrows="1" fold="1" page="1" pageScale="1" pageWidth="850" pageHeight="1100" math="0" shadow="0">
      <root>
        <mxCell id="0" />
        <mxCell id="1" parent="0" />
        <mxCell id="29umlk4xWOvSFYC6YSX6-7" style="edgeStyle=orthogonalEdgeStyle;rounded=0;orthogonalLoop=1;jettySize=auto;html=1;exitX=0.5;exitY=1;exitDx=0;exitDy=0;entryX=0.5;entryY=0;entryDx=0;entryDy=0;" edge="1" parent="1" source="29umlk4xWOvSFYC6YSX6-1" target="29umlk4xWOvSFYC6YSX6-2">
          <mxGeometry relative="1" as="geometry" />
        </mxCell>
        <mxCell id="29umlk4xWOvSFYC6YSX6-1" value="Power-on Reset" style="rounded=1;whiteSpace=wrap;html=1;fontSize=18;fillColor=#dae8fc;strokeColor=#6c8ebf;fontStyle=0" vertex="1" parent="1">
          <mxGeometry x="70" y="260" width="140" height="50" as="geometry" />
        </mxCell>
        <mxCell id="29umlk4xWOvSFYC6YSX6-8" style="edgeStyle=orthogonalEdgeStyle;rounded=0;orthogonalLoop=1;jettySize=auto;html=1;exitX=0.5;exitY=1;exitDx=0;exitDy=0;entryX=0.5;entryY=0;entryDx=0;entryDy=0;" edge="1" parent="1" source="29umlk4xWOvSFYC6YSX6-2" target="29umlk4xWOvSFYC6YSX6-3">
          <mxGeometry relative="1" as="geometry" />
        </mxCell>
        <mxCell id="29umlk4xWOvSFYC6YSX6-2" value="BOOT ROM" style="rounded=1;whiteSpace=wrap;html=1;fontSize=18;fillColor=#dae8fc;strokeColor=#6c8ebf;fontStyle=0" vertex="1" parent="1">
          <mxGeometry x="70" y="340" width="140" height="50" as="geometry" />
        </mxCell>
        <mxCell id="29umlk4xWOvSFYC6YSX6-9" style="edgeStyle=orthogonalEdgeStyle;rounded=0;orthogonalLoop=1;jettySize=auto;html=1;exitX=0.5;exitY=1;exitDx=0;exitDy=0;entryX=0.5;entryY=0;entryDx=0;entryDy=0;" edge="1" parent="1" source="29umlk4xWOvSFYC6YSX6-3" target="29umlk4xWOvSFYC6YSX6-4">
          <mxGeometry relative="1" as="geometry" />
        </mxCell>
        <mxCell id="29umlk4xWOvSFYC6YSX6-3" value="SPL" style="rounded=1;whiteSpace=wrap;html=1;fontSize=18;fillColor=#dae8fc;strokeColor=#6c8ebf;fontStyle=0" vertex="1" parent="1">
          <mxGeometry x="70" y="420" width="140" height="50" as="geometry" />
        </mxCell>
        <mxCell id="29umlk4xWOvSFYC6YSX6-10" style="edgeStyle=orthogonalEdgeStyle;rounded=0;orthogonalLoop=1;jettySize=auto;html=1;exitX=0.5;exitY=1;exitDx=0;exitDy=0;entryX=0.5;entryY=0;entryDx=0;entryDy=0;" edge="1" parent="1" source="29umlk4xWOvSFYC6YSX6-4" target="29umlk4xWOvSFYC6YSX6-5">
          <mxGeometry relative="1" as="geometry" />
        </mxCell>
        <mxCell id="29umlk4xWOvSFYC6YSX6-4" value="uboot" style="rounded=1;whiteSpace=wrap;html=1;fontSize=18;fillColor=#dae8fc;strokeColor=#6c8ebf;fontStyle=0" vertex="1" parent="1">
          <mxGeometry x="70" y="500" width="140" height="50" as="geometry" />
        </mxCell>
        <mxCell id="29umlk4xWOvSFYC6YSX6-5" value="Kernel" style="rounded=1;whiteSpace=wrap;html=1;fontSize=18;fillColor=#dae8fc;strokeColor=#6c8ebf;fontStyle=0" vertex="1" parent="1">
          <mxGeometry x="70" y="580" width="140" height="50" as="geometry" />
        </mxCell>
        <mxCell id="29umlk4xWOvSFYC6YSX6-6" value="&lt;b&gt;&lt;font style=&quot;font-size: 20px;&quot;&gt;5 step:&lt;/font&gt;&lt;/b&gt;" style="text;html=1;align=center;verticalAlign=middle;whiteSpace=wrap;rounded=0;" vertex="1" parent="1">
          <mxGeometry x="90" y="200" width="100" height="30" as="geometry" />
        </mxCell>
        <mxCell id="29umlk4xWOvSFYC6YSX6-24" style="edgeStyle=orthogonalEdgeStyle;rounded=0;orthogonalLoop=1;jettySize=auto;html=1;exitX=0.5;exitY=1;exitDx=0;exitDy=0;entryX=0.5;entryY=0;entryDx=0;entryDy=0;" edge="1" parent="1" source="29umlk4xWOvSFYC6YSX6-11" target="29umlk4xWOvSFYC6YSX6-14">
          <mxGeometry relative="1" as="geometry" />
        </mxCell>
        <mxCell id="29umlk4xWOvSFYC6YSX6-11" value="POR: &lt;span style=&quot;font-weight: normal;&quot;&gt;Khi thiết bị được bật nguồn&lt;/span&gt;" style="swimlane;whiteSpace=wrap;html=1;" vertex="1" parent="1">
          <mxGeometry x="320" y="20" width="460" height="110" as="geometry">
            <mxRectangle x="320" y="20" width="220" height="30" as="alternateBounds" />
          </mxGeometry>
        </mxCell>
        <mxCell id="29umlk4xWOvSFYC6YSX6-12" value="- Tín hiệu reset được kích hoạt, các thanh ghi phần cứng trong trạng thái khởi tạo&lt;div&gt;- CPU thực thi từ địa chỉ cố định (Thường là reset vector)&amp;nbsp;&lt;/div&gt;&lt;div&gt;(Địa chỉ này thường là 0x00.. được cấu hình bởi boot configuration)&lt;/div&gt;" style="text;html=1;align=left;verticalAlign=middle;resizable=0;points=[];autosize=1;strokeColor=none;fillColor=none;" vertex="1" parent="29umlk4xWOvSFYC6YSX6-11">
          <mxGeometry x="10" y="30" width="460" height="60" as="geometry" />
        </mxCell>
        <mxCell id="29umlk4xWOvSFYC6YSX6-25" style="edgeStyle=orthogonalEdgeStyle;rounded=0;orthogonalLoop=1;jettySize=auto;html=1;exitX=0.5;exitY=1;exitDx=0;exitDy=0;entryX=0.5;entryY=0;entryDx=0;entryDy=0;" edge="1" parent="1" source="29umlk4xWOvSFYC6YSX6-14" target="29umlk4xWOvSFYC6YSX6-16">
          <mxGeometry relative="1" as="geometry" />
        </mxCell>
        <mxCell id="29umlk4xWOvSFYC6YSX6-14" value="BOOT ROM" style="swimlane;whiteSpace=wrap;html=1;" vertex="1" parent="1">
          <mxGeometry x="320" y="160" width="460" height="150" as="geometry">
            <mxRectangle x="320" y="160" width="220" height="30" as="alternateBounds" />
          </mxGeometry>
        </mxCell>
        <mxCell id="29umlk4xWOvSFYC6YSX6-15" value="- Là thành phần trên chip, được nhà cung cấp phát triển và ghi vào ROM&lt;div&gt;- ROM khởi tạo CPU, memory controller, on-chip devices, config memory map,...&lt;/div&gt;&lt;div&gt;- Cũng có thể gọi là ROM program loader (RPL)&lt;/div&gt;&lt;div&gt;- Rom có thể tải file image từ:&lt;/div&gt;&lt;div&gt;&lt;span style=&quot;white-space: pre;&quot;&gt;&#x9;&lt;/span&gt;+ Memory booting: MMC&lt;br&gt;&lt;/div&gt;&lt;div&gt;&lt;span style=&quot;white-space: pre;&quot;&gt;&#x9;&lt;/span&gt;+ Peripheral booting with UART&lt;br&gt;&lt;/div&gt;&lt;div&gt;&lt;span style=&quot;white-space: pre;&quot;&gt;&#x9;&lt;/span&gt;+ ...&lt;br&gt;&lt;/div&gt;" style="text;html=1;align=left;verticalAlign=middle;resizable=0;points=[];autosize=1;strokeColor=none;fillColor=none;" vertex="1" parent="29umlk4xWOvSFYC6YSX6-14">
          <mxGeometry x="10" y="30" width="450" height="110" as="geometry" />
        </mxCell>
        <mxCell id="29umlk4xWOvSFYC6YSX6-26" style="edgeStyle=orthogonalEdgeStyle;rounded=0;orthogonalLoop=1;jettySize=auto;html=1;exitX=0.5;exitY=1;exitDx=0;exitDy=0;" edge="1" parent="1" source="29umlk4xWOvSFYC6YSX6-16" target="29umlk4xWOvSFYC6YSX6-19">
          <mxGeometry relative="1" as="geometry" />
        </mxCell>
        <mxCell id="29umlk4xWOvSFYC6YSX6-16" value="SPL - uboot SPL" style="swimlane;whiteSpace=wrap;html=1;" vertex="1" parent="1">
          <mxGeometry x="320" y="340" width="460" height="150" as="geometry">
            <mxRectangle x="320" y="340" width="220" height="30" as="alternateBounds" />
          </mxGeometry>
        </mxCell>
        <mxCell id="29umlk4xWOvSFYC6YSX6-17" value="&lt;div&gt;- ROM sao chép &quot;MLO&quot; (bootloader) vào internal RAM/static RAM.&lt;/div&gt;&lt;div&gt;- SRAM bị giới hạn nê chỉ có vài kB cho bootloader&lt;/div&gt;&lt;div&gt;- Bootloader thông thường lớn hơn vài kB nên cần tạo một số bootloader bổ sung,&amp;nbsp;&lt;/div&gt;&lt;div&gt;nó sẽ khởi tạo RAM --&amp;gt; Excute cái bootloader base&lt;/div&gt;&lt;div&gt;- Đồng thời config clock và kernel&lt;/div&gt;" style="text;html=1;align=left;verticalAlign=middle;resizable=0;points=[];autosize=1;strokeColor=none;fillColor=none;" vertex="1" parent="29umlk4xWOvSFYC6YSX6-16">
          <mxGeometry x="10" y="40" width="460" height="90" as="geometry" />
        </mxCell>
        <mxCell id="29umlk4xWOvSFYC6YSX6-27" style="edgeStyle=orthogonalEdgeStyle;rounded=0;orthogonalLoop=1;jettySize=auto;html=1;exitX=0.5;exitY=1;exitDx=0;exitDy=0;entryX=0.5;entryY=0;entryDx=0;entryDy=0;" edge="1" parent="1" source="29umlk4xWOvSFYC6YSX6-19" target="29umlk4xWOvSFYC6YSX6-22">
          <mxGeometry relative="1" as="geometry" />
        </mxCell>
        <mxCell id="29umlk4xWOvSFYC6YSX6-19" value="uboot" style="swimlane;whiteSpace=wrap;html=1;" vertex="1" parent="1">
          <mxGeometry x="320" y="520" width="460" height="180" as="geometry">
            <mxRectangle x="290" y="100" width="220" height="30" as="alternateBounds" />
          </mxGeometry>
        </mxCell>
        <mxCell id="29umlk4xWOvSFYC6YSX6-20" value="- Bootloader giải nén Linux kernel từ flash --&amp;gt; Nhảy đến lệnh đầu tiên của Kernel:&amp;nbsp;&lt;div&gt;Config thanh ghi --&amp;gt; Gọi start_kernel&lt;/div&gt;&lt;div&gt;- Vì các hệ thống nhúng không có BIOS để thực hiện cấu hình hệ thống ban đầu,&amp;nbsp;&lt;/div&gt;&lt;div&gt;nên việc init cấp thấp của MPU, memory controller và phần cứng dành riêng cho&amp;nbsp;&lt;/div&gt;&lt;div&gt;các loại bo mạch khác nhau phải được thực hiện trước khi Linux Kernel excute&lt;/div&gt;&lt;div&gt;- Khởi tạo đầy đủ phần cứng: UART, memory, peripheral...&lt;/div&gt;&lt;div&gt;- Đọc Kernel image, device tree, initrd (nếu cần)&lt;/div&gt;&lt;div&gt;- Chuyển quyền điều khiển cho Kernel thông qua bootm hoặc bootz&lt;/div&gt;" style="text;html=1;align=left;verticalAlign=middle;resizable=0;points=[];autosize=1;strokeColor=none;fillColor=none;" vertex="1" parent="29umlk4xWOvSFYC6YSX6-19">
          <mxGeometry x="10" y="40" width="460" height="130" as="geometry" />
        </mxCell>
        <mxCell id="29umlk4xWOvSFYC6YSX6-22" value="KERNEL" style="swimlane;whiteSpace=wrap;html=1;" vertex="1" parent="1">
          <mxGeometry x="320" y="730" width="460" height="110" as="geometry">
            <mxRectangle x="290" y="100" width="220" height="30" as="alternateBounds" />
          </mxGeometry>
        </mxCell>
        <mxCell id="29umlk4xWOvSFYC6YSX6-23" value="- Sau khi nhận được quyền kiểm soát và các Kernel parametters từ uboot. Kernel&lt;div&gt;sẽ thực hiện mount hệ thống file system (rootfs) và cho chạy tiến trình Init trên RAM&amp;nbsp;&lt;/div&gt;&lt;div&gt;(Parent process)&lt;/div&gt;" style="text;html=1;align=left;verticalAlign=middle;resizable=0;points=[];autosize=1;strokeColor=none;fillColor=none;" vertex="1" parent="29umlk4xWOvSFYC6YSX6-22">
          <mxGeometry x="10" y="34" width="470" height="60" as="geometry" />
        </mxCell>
      </root>
    </mxGraphModel>
  </diagram>
</mxfile>
